<mxfile host="app.diagrams.net" modified="2023-11-27T13:28:19.074Z" agent="Mozilla/5.0 (Windows NT 10.0; Win64; x64) AppleWebKit/537.36 (KHTML, like Gecko) Chrome/118.0.0.0 Safari/537.36 OPR/104.0.0.0" version="22.1.4" etag="sXMNG1HgbmE3syCA4aq5" type="github">
  <diagram name="PÃ¡gina-1" id="3YU8GLVVkmsYIEH9wxTj">
    <mxGraphModel>
      <root>
        <mxCell id="0" />
        <mxCell id="1" parent="0" />
      </root>
    </mxGraphModel>
  </diagram>
</mxfile>
